<svg id="Layer_1" data-name="Layer 1" xmlns="http://www.w3.org/2000/svg" viewBox="0 0 52.25 53.62"><defs><style>.cls-1{fill:#fff;}</style></defs><title>avatar_icon</title><path class="cls-1" d="M39.3,19.93c-.83,3.19-2.77,3.9-3.81,4A21.05,21.05,0,0,1,32,29.18a6.86,6.86,0,0,1-2.17,1.32,9.57,9.57,0,0,1-7,0,6.86,6.86,0,0,1-2.17-1.31A21,21,0,0,1,17.2,24c-1-.14-3-.84-3.83-4a5.07,5.07,0,0,1,.33-4.13,3.23,3.23,0,0,1,1-1c0-.34,0-.77.05-1.25-.6-.84-1.43-2.64-.42-5.57A5,5,0,0,1,19,4.41a8.11,8.11,0,0,1,2.5-2.75A9.65,9.65,0,0,1,27,0a12.51,12.51,0,0,1,7.41,2.58c3.73,2.74,3.43,8.84,3.34,9.94a16.46,16.46,0,0,1,.18,2.3,3.22,3.22,0,0,1,1,1,5.08,5.08,0,0,1,.35,4.13ZM50.25,43.66l0,8.65A1.23,1.23,0,0,1,49,53.54l-45.29.08A1.23,1.23,0,0,1,2.52,52.4l0-8.65a8.58,8.58,0,0,1,5.4-8l10.71-4.31a1.23,1.23,0,0,1,1.61.72l2.71,7.44.53-1.53L22.61,36a1.23,1.23,0,0,1,1.13-1.69H29A1.23,1.23,0,0,1,30.12,36L29.27,38l.54,1.53,2.68-7.45a1.23,1.23,0,0,1,1.61-.72l10.72,4.27a8.58,8.58,0,0,1,5.43,8Zm-6.52,1a1.23,1.23,0,0,0-1.23-1.22H34.27A1.22,1.22,0,0,0,33,44.63v3.82a1.22,1.22,0,0,0,1.23,1.22h8.23a1.23,1.23,0,0,0,1.22-1.23Zm0,0"/></svg>