<svg id="Layer_1" data-name="Layer 1" xmlns="http://www.w3.org/2000/svg" viewBox="0 0 246.97 293.94"><defs><style>.cls-1{fill:#fff;}</style></defs><title>corporate_icon-01</title><path class="cls-1" d="M153.27,177.49a8.64,8.64,0,0,1-8.53,8.53H102.11a8.64,8.64,0,0,1-8.53-8.53V156.17H4.05v64a20.52,20.52,0,0,0,6.26,15.05,20.54,20.54,0,0,0,15.06,6.26H221.49a21.38,21.38,0,0,0,21.32-21.31v-64H153.27Zm0,0"/><rect class="cls-1" x="106.38" y="156.17" width="34.1" height="17.06"/><path class="cls-1" d="M236.55,77.17a20.53,20.53,0,0,0-15.06-6.26H174.59V49.59A12.75,12.75,0,0,0,161.8,36.79H85.06A12.73,12.73,0,0,0,72.27,49.59V70.91H25.37a20.53,20.53,0,0,0-15.06,6.26A20.52,20.52,0,0,0,4.05,92.22v51.16H242.81V92.22a20.52,20.52,0,0,0-6.26-15.05Zm-79-6.26H89.32V53.85h68.21Zm0,0"/></svg>