<svg id="Layer_1" data-name="Layer 1" xmlns="http://www.w3.org/2000/svg" viewBox="0 0 246.97 293.94"><defs><style>.cls-1{fill:#fff;}</style></defs><title>e-comerce_icon</title><path class="cls-1" d="M143.74,193.84a13.36,13.36,0,0,0-3.74-2.72,45,45,0,0,0-9.47-3.35v25.07c5.25-.59,11.28-2.5,14-7.4a11.46,11.46,0,0,0,1-7.82,7.85,7.85,0,0,0-1.87-3.78Zm0,0"/><path class="cls-1" d="M105.89,153.76a9.38,9.38,0,0,0-1.62,4.41,10.51,10.51,0,0,0,.54,4.87,7.8,7.8,0,0,0,3,3.34,23.45,23.45,0,0,0,4.51,2.32c1.31.53,2.8,1,4.39,1.53V147.54c-4,.86-8.43,2.7-10.84,6.22Zm0,0"/><path class="cls-1" d="M139.36,68.65c21.32-17.91,35.57-58.26,26.8-60-11.65-2.34-36.94,7.94-49.17,9.75C99.64,20.47,80.76-.43,70.16,11.22c-8.62,9.47,6.18,43.91,29.33,58.92-69.08,34-166.17,204.39,3.22,216.76,234.38,17.11,117-185.17,36.65-218.26Zm20.13,134.42A24.65,24.65,0,0,1,150,219.8c-5.56,4.31-12.53,6.31-19.46,6.87V234a6.89,6.89,0,0,1-13.79,0v-8q-1.78-.34-3.53-.81A33.85,33.85,0,0,1,96.34,214.8a30.37,30.37,0,0,1-5.2-8.59c-.32-.82-.61-1.65-.86-2.5a12.7,12.7,0,0,1-.54-2.33,6.89,6.89,0,0,1,13.4-2.86c.26.8.44,1.61.73,2.4a15.35,15.35,0,0,0,1.06,2.26,17.55,17.55,0,0,0,3,3.88,20.55,20.55,0,0,0,8.77,4.78V184.55c-6.32-1.64-12.85-3.75-18.08-7.81a21.06,21.06,0,0,1-6.1-7.33,22.91,22.91,0,0,1-2.13-9.87,23.53,23.53,0,0,1,2.06-10,24.35,24.35,0,0,1,5.66-7.76c5.08-4.67,11.82-7.28,18.59-8.24v-7.62a6.89,6.89,0,0,1,13.79,0v7.58q1.35.17,2.69.41c6.64,1.2,13.14,3.94,18,8.74a26.38,26.38,0,0,1,5.51,7.92,25.32,25.32,0,0,1,1,2.52,15.39,15.39,0,0,1,.65,2.46,6.87,6.87,0,0,1-.58,3.93A6.89,6.89,0,0,1,145.1,159c-.29-.75-.43-1.55-.73-2.3a12.35,12.35,0,0,0-1.13-2.17,13.19,13.19,0,0,0-3.26-3.42,22.4,22.4,0,0,0-9.46-3.7v26.1a87.51,87.51,0,0,1,11.78,3.5c5.76,2.27,11.22,5.76,14.37,11.25-.49-.85-1-1.69,0,0s.5.89,0,0a24.59,24.59,0,0,1,2.78,14.7Zm0,0"/></svg>