<svg id="Layer_1" data-name="Layer 1" xmlns="http://www.w3.org/2000/svg" viewBox="0 0 231 170"><defs><style>.cls-1{fill:#fff;}</style></defs><title>icon_poq</title><path class="cls-1" d="M148.91,31.87A44.47,44.47,0,1,0,82.2,90.7a47.43,47.43,0,0,0,3.74,3.74c4.67,4.16,6.65,8.16,6.65,13.41l-.06,5.22a5,5,0,0,0,5,5.08h.06a5,5,0,0,0,5-5l.06-5.22v0c0-8.21-3.16-14.86-10-21a40.29,40.29,0,0,1-2.91-2.9A34.42,34.42,0,1,1,141.37,84a37.25,37.25,0,0,1-3,3c-6.73,6-9.89,12.6-9.92,20.7l-.06,5.47a5,5,0,0,0,5,5.08h.06a5,5,0,0,0,5-5l.06-5.47c0-.08,0-.08,0-.11,0-5.25,1.93-9.11,6.56-13.24a48.79,48.79,0,0,0,3.8-3.83,44.65,44.65,0,0,0,0-58.71Zm0,0"/><path class="cls-1" d="M133.43,126.56H97.57a5,5,0,0,0,0,10.06h35.89a5,5,0,0,0,0-10.06Zm0,0"/><path class="cls-1" d="M125.16,143.18H105.81a5,5,0,1,0,0,10.06h19.36a5,5,0,1,0,0-10.06Zm0,0"/><path class="cls-1" d="M119,75.73,105.17,61.84A5,5,0,1,0,98,69l12.43,12.4v31.76a5,5,0,0,0,10.06,0V79.67A5.33,5.33,0,0,0,119,75.73Zm0,0"/><path class="cls-1" d="M133,61.82a5.06,5.06,0,0,0-7.12,0l-2.65,2.65a5,5,0,1,0,7.12,7.12L133,68.94a5.06,5.06,0,0,0,0-7.12Zm0,0"/></svg>