<svg id="Layer_1" data-name="Layer 1" xmlns="http://www.w3.org/2000/svg" viewBox="0 0 231 170"><defs><style>.cls-1{fill:#fff;}</style></defs><title>icon_ekran</title><path class="cls-1" d="M180.93,22.5H50.07a7,7,0,0,0-7,7v82.09a7,7,0,0,0,7,7H99v15.9H80a6.49,6.49,0,1,0,0,13H151a6.49,6.49,0,0,0,0-13H132v-15.9h48.94a7,7,0,0,0,7-7V29.51a7,7,0,0,0-7-7Zm-3.51,85.6H53.58V33H177.42Zm0,0"/><path class="cls-1" d="M76.24,74.52,98.37,84.82a4.3,4.3,0,0,0,6.11-3.9V80.8A4.31,4.31,0,0,0,102,76.9L88.15,70.47,102,64a4.31,4.31,0,0,0,2.49-3.9V60a4.31,4.31,0,0,0-6.11-3.9L76.24,66.42a4.32,4.32,0,0,0-2.49,3.9v.31a4.32,4.32,0,0,0,2.49,3.9Zm0,0"/><path class="cls-1" d="M104.68,95.49a4.31,4.31,0,0,0,3.47,1.76h.11a4.29,4.29,0,0,0,4.09-3l14.58-45.17a4.3,4.3,0,0,0-4.1-5.62h-.11a4.29,4.29,0,0,0-4.1,3L104.06,91.64a4.32,4.32,0,0,0,.63,3.85Zm0,0"/><path class="cls-1" d="M126.51,60.14A4.32,4.32,0,0,0,129,64l13.84,6.43L129,76.9a4.31,4.31,0,0,0-2.49,3.9v.11a4.3,4.3,0,0,0,6.12,3.9l22.13-10.29a4.32,4.32,0,0,0,2.49-3.9v-.31a4.32,4.32,0,0,0-2.49-3.9L132.63,56.12a4.33,4.33,0,0,0-4.13.27,4.28,4.28,0,0,0-2,3.63Zm0,0"/></svg>