<svg id="Layer_1" data-name="Layer 1" xmlns="http://www.w3.org/2000/svg" viewBox="0 0 231 170"><defs><style>.cls-1{fill:#fff;}</style></defs><title>icon_yll</title><path class="cls-1" d="M101.38,67l-6.81-6.44a10.09,10.09,0,1,0-3.48,3.71l6.8,6.43a22.68,22.68,0,0,1,3.49-3.7Zm0,0"/><path class="cls-1" d="M130.16,66.19l9-15.21a10,10,0,1,0-4.38-2.56l-9,15.17a22.93,22.93,0,0,1,4.36,2.6Zm0,0"/><path class="cls-1" d="M161.34,78.93a10.09,10.09,0,0,0-9.44,6.62L139.34,84.3c0,.09,0,.18,0,.28a23.13,23.13,0,0,1-.5,4.79L151.4,90.6a10.08,10.08,0,1,0,9.94-11.67Zm0,0"/><path class="cls-1" d="M126.68,118.62l-2.81-12.27a23.47,23.47,0,0,1-5,1.14l2.81,12.29a10.06,10.06,0,1,0,5-1.15Zm0,0"/><path class="cls-1" d="M93.73,89.45,78.09,94.69a10.08,10.08,0,1,0,1.65,5.51,6.13,6.13,0,0,0-.07-.67l15.69-5.26a23.57,23.57,0,0,1-1.64-4.82Zm0,0"/><path class="cls-1" d="M133.59,84.57a17.31,17.31,0,1,1-17.31-17.31,17.3,17.3,0,0,1,17.31,17.31Zm0,0"/></svg>