<svg id="Layer_1" data-name="Layer 1" xmlns="http://www.w3.org/2000/svg" viewBox="0 0 153.35 141.75"><defs><style>.cls-1{fill:#fff;}.cls-2{fill:red;}</style></defs><title>marketing_icon3</title><path class="cls-1" d="M107.9,40.7,135.67,48l7-27.77-5.33-1.4-4.55,17.32a66,66,0,1,0,.89,68l-4.77-2.59a60.58,60.58,0,1,1,.27-60.91L109.3,35.37Zm0,0"/><path class="cls-2" d="M79.58,100.16v-5c4.77-.27,8.41-1.67,11.21-4.2A12.76,12.76,0,0,0,95,81.11c0-4.2-1.13-7.3-3.64-9.27-2.53-2.24-6.17-3.93-11.5-5h-.27V53.9a21.16,21.16,0,0,1,9.81,3.93l4.5-6.17a27.46,27.46,0,0,0-14.3-5V43.26h-4.2v3.37a17.21,17.21,0,0,0-10.67,4.2,12.76,12.76,0,0,0-4.2,9.81c0,3.91,1.13,7,3.64,9,2.24,2,6.17,3.64,11.21,4.77V87.55q-5.9-.85-11.77-5.9l-5,5.9a28.79,28.79,0,0,0,16.84,7.57v5Zm.27-24.41a17,17,0,0,1,5.6,2.53,6.12,6.12,0,0,1,1.4,3.93,4.56,4.56,0,0,1-2,3.93,10.18,10.18,0,0,1-5,2ZM70,63.71a5.33,5.33,0,0,1-1.4-3.64,5.19,5.19,0,0,1,1.67-3.93,9.19,9.19,0,0,1,5-2V66.24c-2.8-.86-4.47-1.7-5.31-2.53Zm0,0"/></svg>