<svg id="Layer_1" data-name="Layer 1" xmlns="http://www.w3.org/2000/svg" viewBox="0 0 274.69 250.72"><defs><style>.cls-1{fill:#ff0013;}</style></defs><title>market_i4</title><path class="cls-1" d="M143.23,46.58c-1.95-.17-3.92-.26-5.89-.26-2.66,0-5.32.14-7.92.4a79.25,79.25,0,1,0,13.82-.14Zm61,72.93H168a31.19,31.19,0,0,0-24.75-24.75V58.46A67.16,67.16,0,0,1,204.25,119.51Zm-66.92-11.39a17.24,17.24,0,1,1-17.25,17.25A17.25,17.25,0,0,1,137.33,108.12Zm0,84.4a67.15,67.15,0,0,1-7.92-133.84V95.19a31.19,31.19,0,0,0,7.92,61.34,30.86,30.86,0,0,0,11.53-2.2l26.44,26.44A66.89,66.89,0,0,1,137.33,192.52ZM186,171.61l-25.46-25.46a30.85,30.85,0,0,0,6.87-12.56H204A66.85,66.85,0,0,1,186,171.61Z"/></svg>