<svg id="Layer_1" data-name="Layer 1" xmlns="http://www.w3.org/2000/svg" viewBox="0 0 274.69 250.72"><defs><style>.cls-1{fill:#ff0013;}</style></defs><title>market_i6</title><rect class="cls-1" x="118.62" y="118.23" width="37.45" height="14.25" rx="1.36" ry="1.36"/><rect class="cls-1" x="116.55" y="118.23" width="41.6" height="14.25" rx="1.36" ry="1.36"/><rect class="cls-1" x="118.62" y="118.23" width="37.45" height="14.25" rx="1.36" ry="1.36"/><rect class="cls-1" x="116.55" y="118.23" width="41.6" height="14.25" rx="1.36" ry="1.36"/><rect class="cls-1" x="118.62" y="118.23" width="37.45" height="14.25" rx="1.36" ry="1.36"/><rect class="cls-1" x="116.55" y="118.23" width="41.6" height="14.25" rx="1.36" ry="1.36"/><path class="cls-1" d="M224.15,74.61a23.21,23.21,0,0,0-11.45-6.38H172.62V56A9.32,9.32,0,0,0,168.36,46c-18-.06-114.48-.37-117.75,0a7.22,7.22,0,0,0-2.08.59,7.37,7.37,0,0,0-1.68,1.15,6.59,6.59,0,0,0-1.18,1.43A5.64,5.64,0,0,0,45,50.6a8.1,8.1,0,0,0-.44,3V178.43a35.4,35.4,0,0,0,29.14,26.44H87.31q56.73-.23,113.52-.4a33.24,33.24,0,0,0,15.55-5.82c11.23-8,13.4-20.5,13.78-23.14V86.09A22.75,22.75,0,0,0,224.15,74.61ZM71.7,189.44a20.1,20.1,0,0,1-8.83-6,20.31,20.31,0,0,1-4.67-11.91V60.37q50.06.09,100.05.25V173.36a77.87,77.87,0,0,0,3.11,8.8,70.69,70.69,0,0,0,4.42,8.83Q118.7,190.2,71.7,189.44Zm144.87-16.33a20,20,0,0,1-3.11,7,22.53,22.53,0,0,1-39.9-6q.09-45.49.25-91h13v80.09a8.53,8.53,0,0,0,16,1.06V88.36a7.24,7.24,0,0,1,6.75-4.67,7.34,7.34,0,0,1,7,6.47C216.94,96.39,220.45,157,216.56,173.11Z"/></svg>