<svg id="Layer_1" data-name="Layer 1" xmlns="http://www.w3.org/2000/svg" viewBox="0 0 274.69 250.72"><defs><style>.cls-1{fill:#ff0013;}</style></defs><title>market_i5</title><path class="cls-1" d="M221.28,58.11a20.19,20.19,0,0,0-12.43-6.32H122.07V36.9H77.91v74.62q11,18.15,22,36.33,11.35-18.46,22.71-36.89V66.43h82.52a4.48,4.48,0,0,1,6,5.22V148H100.35l13.14,17.58q-10.24,8.54-20.5,17.14V162.62H68.91a5.2,5.2,0,0,1-3.73-1.19,5.14,5.14,0,0,1-1.73-3.84V70.27a5.69,5.69,0,0,1,1.88-2.53A6,6,0,0,1,70,66.82c.09-5.13.18-10.25.27-15.41a18.83,18.83,0,0,0-7.33.51A19.94,19.94,0,0,0,52,60a21.73,21.73,0,0,0-3.61,8.55v93A24.85,24.85,0,0,0,55.89,173c8.91,7.69,20.14,5.9,21.84,5.6v35.25q22.66-18.24,45.33-36.51h87.67a20.51,20.51,0,0,0,15.53-16.45V68.81A20.08,20.08,0,0,0,221.28,58.11Zm-121,69.43h0a4.16,4.16,0,0,1-3.55-2q-4.44-7.23-8.84-14.47A2.31,2.31,0,0,1,89,107.76l8.57-3.46a7.41,7.41,0,0,1,5.32-.09l9,3.32a2.36,2.36,0,0,1,1.19,3.48q-4.57,7.23-9.13,14.5A4.37,4.37,0,0,1,100.23,127.55Z"/></svg>