<svg id="Layer_1" data-name="Layer 1" xmlns="http://www.w3.org/2000/svg" viewBox="0 0 274.69 250.72"><defs><style>.cls-1{fill:none;}.cls-2{fill:#ff0013;}</style></defs><title>market_i3</title><path class="cls-1" d="M163.69,153.14H111c.89-4.29,2.68-6.3,4.15-7.31.8-.55,1-.48,7.16-2.8a27.07,27.07,0,0,0,4.9-2.1,18,18,0,0,0,4.37-3.76,18.18,18.18,0,0,0-.29-6.71c-1.23-4.9-3.69-5.21-5.74-9.89a22.74,22.74,0,0,1,.53-17.27,8.25,8.25,0,0,1,2.1-2.92A8.87,8.87,0,0,1,132,98.57a17.7,17.7,0,0,1,7.07-.92c1.23.12,6.78.68,9.72,4.75,2.51,3.45,1.81,7.58.46,15.37a15.11,15.11,0,0,1-1.42,4.92,21.87,21.87,0,0,0-1.21,2.32c-.63,1.45-.6,1.93-1.13,2.87-.7,1.25-1.18,1.21-1.81,2.12-1.62,2.36-.39,5.69-.29,6a8.53,8.53,0,0,0,3.09,3.76c2.39,1.93,3.84,1.93,9.12,4.22,4.22,1.83,5,2.61,5.5,3.09A10.69,10.69,0,0,1,163.69,153.14Z"/><path class="cls-2" d="M209.57,174.15V74.5a8.93,8.93,0,0,0-2.32-3.81A8.8,8.8,0,0,0,202,68.27c-72.69-.24-126-.1-129.91.46a9.32,9.32,0,0,0-4.22,1.69,8.9,8.9,0,0,0-2.73,4.13v99.92a7.7,7.7,0,0,0,2.36,5,7.86,7.86,0,0,0,4.54,2H91.68a3.63,3.63,0,0,0,1.09-.87,4.26,4.26,0,0,0,1-2.82v-4.66A6.29,6.29,0,0,1,91.56,170,6.52,6.52,0,0,1,93,164.17a7.22,7.22,0,0,1,6-2.17c.51,0,4.46.41,5.86,3.67a6.64,6.64,0,0,1-2.1,7.55v6.49a3.27,3.27,0,0,0,1.16,1.54,3.37,3.37,0,0,0,2.51.6h62.17a4.73,4.73,0,0,0,2.46-1.45,5.15,5.15,0,0,0,1.11-3.76,6.87,6.87,0,0,0-1.76-4.27,6.77,6.77,0,0,1-1.35-5c.55-3.11,3.62-4.92,6.13-5.28.43,0,4.29-.55,6.59,2.36a6.29,6.29,0,0,1,.6,7,5.36,5.36,0,0,1-2,1.76v6.88a3.59,3.59,0,0,0,1.25,1.71,3.68,3.68,0,0,0,2.46.75h19.47a8.41,8.41,0,0,0,4.15-2.8A8.58,8.58,0,0,0,209.57,174.15ZM86.47,145.59c.89-4.29,2.68-6.3,4.15-7.31.8-.55,1-.48,7.16-2.8a27.07,27.07,0,0,0,4.9-2.1,18,18,0,0,0,4.37-3.76,18.18,18.18,0,0,0-.29-6.71c-1.23-4.9-3.69-5.21-5.74-9.89a22.74,22.74,0,0,1,.53-17.27,8.25,8.25,0,0,1,2.1-2.92A8.87,8.87,0,0,1,107.43,91a17.7,17.7,0,0,1,7.07-.92c1.23.12,6.78.68,9.72,4.75,2.51,3.45,1.81,7.58.46,15.37a15.11,15.11,0,0,1-1.42,4.92,21.87,21.87,0,0,0-1.21,2.32c-.63,1.45-.6,1.93-1.13,2.87-.7,1.25-1.18,1.21-1.81,2.12-1.62,2.36-.39,5.69-.29,6a8.53,8.53,0,0,0,3.09,3.76c2.39,1.93,3.84,1.93,9.12,4.22,4.22,1.83,5,2.61,5.5,3.09a10.69,10.69,0,0,1,2.63,6.1Zm93.07-18.5c-2.15,0-4.13-1.42-4-4.68h-.22c-1.86,3.14-4.32,4.68-7.53,4.68s-5.77-2.51-5.77-6.71a12.61,12.61,0,0,1,12.67-12.67,13.75,13.75,0,0,1,5.69,1.13l-1.81,9.65c-.8,4.05-.14,5.93,1.62,6,2.7,0,5.77-3.57,5.77-9.77,0-7.74-4.66-13.29-12.93-13.29-8.71,0-16,6.9-16,17.73,0,8.9,5.81,14.4,13.73,14.4a16.63,16.63,0,0,0,8.06-1.86l.84,2.29a19.38,19.38,0,0,1-9.48,2.12c-8.76,0-16.19-6.39-16.19-16.65,0-11,7.65-20.51,19.49-20.51,9.29,0,15.54,6.51,15.54,15.44C189,122.41,184.55,127.09,179.54,127.09Z"/><path class="cls-1" d="M163.69,153.14H111c.89-4.29,2.68-6.3,4.15-7.31.8-.55,1-.48,7.16-2.8a27.07,27.07,0,0,0,4.9-2.1,18,18,0,0,0,4.37-3.76,18.18,18.18,0,0,0-.29-6.71c-1.23-4.9-3.69-5.21-5.74-9.89a22.74,22.74,0,0,1,.53-17.27,8.25,8.25,0,0,1,2.1-2.92A8.87,8.87,0,0,1,132,98.57a17.7,17.7,0,0,1,7.07-.92c1.23.12,6.78.68,9.72,4.75,2.51,3.45,1.81,7.58.46,15.37a15.11,15.11,0,0,1-1.42,4.92,21.87,21.87,0,0,0-1.21,2.32c-.63,1.45-.6,1.93-1.13,2.87-.7,1.25-1.18,1.21-1.81,2.12-1.62,2.36-.39,5.69-.29,6a8.53,8.53,0,0,0,3.09,3.76c2.39,1.93,3.84,1.93,9.12,4.22,4.22,1.83,5,2.61,5.5,3.09A10.69,10.69,0,0,1,163.69,153.14Z"/><path class="cls-1" d="M144.44,126.32c-.8,4.05-.14,5.93,1.62,6,2.7,0,5.77-3.57,5.77-9.77,0-7.74-4.66-13.29-12.93-13.29-8.71,0-16,6.9-16,17.73,0,8.9,5.81,14.4,13.73,14.4a16.63,16.63,0,0,0,8.06-1.86l.84,2.29a19.38,19.38,0,0,1-9.48,2.12c-8.76,0-16.19-6.39-16.19-16.65,0-11,7.65-20.51,19.49-20.51,9.29,0,15.54,6.51,15.54,15.44,0,8-4.49,12.69-9.5,12.69-2.15,0-4.13-1.42-4-4.68h-.22c-1.86,3.14-4.32,4.68-7.53,4.68s-5.77-2.51-5.77-6.71a12.61,12.61,0,0,1,12.67-12.67,13.75,13.75,0,0,1,5.69,1.13Z"/></svg>