<svg id="Layer_1" data-name="Layer 1" xmlns="http://www.w3.org/2000/svg" viewBox="0 0 84.66 98.81"><defs><style>.cls-1{fill:red;}</style></defs><title>package1</title><path class="cls-1" d="M72.78,50,44.26,64.24a4.34,4.34,0,0,1-3.86,0L11.87,50a.64.64,0,0,1,0-1.15L19,45.26l20,10a7.48,7.48,0,0,0,6.65,0l20-10,7.14,3.57a.64.64,0,0,1,0,1.15Zm0,10.63a.64.64,0,0,1,0,1.15L44.26,76a4.34,4.34,0,0,1-3.86,0L11.87,61.77a.64.64,0,0,1,0-1.15L19,57,39,67a7.48,7.48,0,0,0,6.65,0l20-10,7.15,3.57ZM11.87,38.2a.64.64,0,0,1,0-1.15L40.4,22.78a4.34,4.34,0,0,1,3.86,0L72.78,37a.64.64,0,0,1,0,1.15L44.26,52.46a4.34,4.34,0,0,1-3.86,0L11.87,38.2ZM76.26,49.41A3.74,3.74,0,0,0,74.18,46l-5.05-2.53L74.18,41h0a3.76,3.76,0,0,0,0-6.73L45.65,20A7.48,7.48,0,0,0,39,20L10.48,34.26a3.76,3.76,0,0,0,0,6.73l5.05,2.53L10.48,46a3.76,3.76,0,0,0,0,6.73l5.05,2.53-5.05,2.53a3.76,3.76,0,0,0,0,6.73L39,78.82a7.48,7.48,0,0,0,6.65,0L74.18,64.56a3.76,3.76,0,0,0,0-6.73L69.13,55.3l5.05-2.53a3.74,3.74,0,0,0,2.08-3.37Z"/></svg>