<svg id="Layer_1" data-name="Layer 1" xmlns="http://www.w3.org/2000/svg" viewBox="0 0 84.66 98.81"><defs><style>.cls-1{fill:red;}</style></defs><title>package2</title><path class="cls-1" d="M72.77,77H11.89A2.29,2.29,0,0,0,9.6,79.29a2.33,2.33,0,0,0,2.28,2.28H72.83a2.29,2.29,0,0,0,2.28-2.28A2.34,2.34,0,0,0,72.77,77Zm0,0"/><path class="cls-1" d="M9.6,56.81,9.55,67.66a2.35,2.35,0,0,0,.67,1.67,2.22,2.22,0,0,0,1.61.67l10.8-.05a2.23,2.23,0,0,0,1.61-.67L61.53,32a2.35,2.35,0,0,0,0-3.28L50.84,17.91a2.35,2.35,0,0,0-3.28,0L40.1,25.42,10.27,55.19a2.48,2.48,0,0,0-.67,1.61Zm39.62-34,7.51,7.51-4.23,4.23L45,27Zm-35,35L41.72,30.32l7.51,7.51L21.74,65.27l-7.57.06Zm0,0"/></svg>