<svg id="Layer_1" data-name="Layer 1" xmlns="http://www.w3.org/2000/svg" viewBox="0 0 84.66 98.81"><defs><style>.cls-1{fill:red;}</style></defs><title>package3</title><path class="cls-1" d="M26.46,62.23a5.49,5.49,0,1,0,3.87,9.39,5.48,5.48,0,0,0,0-7.78,5.32,5.32,0,0,0-3.87-1.6Zm0,0"/><path class="cls-1" d="M25.24,50.63a6.12,6.12,0,0,0-6.1-6.1,6.1,6.1,0,1,0,4.31,10.42,5.88,5.88,0,0,0,1.79-4.31Zm0,0"/><path class="cls-1" d="M60.64,36.59a3.06,3.06,0,1,0-2.16-.9,2.94,2.94,0,0,0,2.16.9Zm0,0"/><path class="cls-1" d="M26.46,26.82a6.71,6.71,0,0,0-6.72,6.71,6.71,6.71,0,0,0,6.72,6.72,6.71,6.71,0,0,0,6.71-6.72,6.71,6.71,0,0,0-6.71-6.71Zm0,0"/><path class="cls-1" d="M70.56,48a3.69,3.69,0,1,0,1.07,2.59A3.52,3.52,0,0,0,70.56,48Zm0,0"/><path class="cls-1" d="M60.64,63.45a4.3,4.3,0,1,0,3,1.26,4.12,4.12,0,0,0-3-1.26Zm0,0"/><path class="cls-1" d="M43.55,70.16A4.89,4.89,0,1,0,47,71.59a4.71,4.71,0,0,0-3.45-1.43Zm0,0"/><path class="cls-1" d="M43.55,18.88a7.29,7.29,0,0,0-7.33,7.33A7.34,7.34,0,0,0,48.74,31.4a7.37,7.37,0,0,0,0-10.38,7.07,7.07,0,0,0-5.19-2.14Zm0,0"/></svg>