<svg id="Layer_1" data-name="Layer 1" xmlns="http://www.w3.org/2000/svg" viewBox="0 0 84.66 98.81"><defs><style>.cls-1{fill:red;}</style></defs><title>package4</title><path class="cls-1" d="M28.91,59a2.15,2.15,0,0,1,0,4.3H13.17a2.15,2.15,0,0,1,0-4.3Zm8,0a2.15,2.15,0,0,0,0,4.3h4.94a2.15,2.15,0,0,0,0-4.3Zm45.79-5.51a2.15,2.15,0,0,1-.08,3c-2.71,2.58-7,3-10.77,2.11v7.71a7.77,7.77,0,0,1-7.76,7.76H9.1a7.77,7.77,0,0,1-7.76-7.76V32.5A7.77,7.77,0,0,1,9.1,24.74h55a7.77,7.77,0,0,1,7.76,7.76V46.62c2.73,1,6.17.8,7.8-.76a2.15,2.15,0,0,1,3,3.12c-3.86,3.67-11,3.07-15,.23C64.75,47.14,60.07,47,58,49a2.15,2.15,0,0,1-3-3.12c3.19-3,8.45-3.17,12.53-1.54V39.87H5.64v5.19h42.1a2.15,2.15,0,0,1,0,4.3H5.64v17A3.46,3.46,0,0,0,9.1,69.77h55a3.47,3.47,0,0,0,3.46-3.46V56.66c-2.91-2-7.53-2.11-9.57-.18a2.15,2.15,0,0,1-3-3.12c3.92-3.73,11-3.09,15.09-.16,2.8,2,7.52,2.07,9.54.16a2.15,2.15,0,0,1,3,.08ZM5.64,35.58H67.58V32.5A3.46,3.46,0,0,0,64.12,29H9.1A3.46,3.46,0,0,0,5.64,32.5Zm0,0"/></svg>