<svg id="Layer_1" data-name="Layer 1" xmlns="http://www.w3.org/2000/svg" viewBox="0 0 246.97 293.94"><defs><style>.cls-1{fill:#fff;}</style></defs><title>personal_icon-01</title><path class="cls-1" d="M123.49,118A54.34,54.34,0,1,0,69.15,63.62,54.4,54.4,0,0,0,123.49,118Zm0,0"/><path class="cls-1" d="M196.41,144.3l-.09,0c-7.07-1.73-28.74-4.76-28.74-4.76a4.81,4.81,0,0,0-5.94,3L129,231.95a5.89,5.89,0,0,1-11.06,0L85.35,142.46a4.81,4.81,0,0,0-4.52-3.17c-.47,0-22.75,3.12-30.16,5-20.27,5-33,25-33,45.74v74.46a20.21,20.21,0,0,0,20.21,20.21H209.15a20.2,20.2,0,0,0,20.2-20.21V189.75a47.81,47.81,0,0,0-32.94-45.45Zm0,0"/><path class="cls-1" d="M135.79,137.8a6.94,6.94,0,0,0-5.13-2.13H116.31a6.92,6.92,0,0,0-5.13,2.13,6.66,6.66,0,0,0-.88,7.85L118,157.22l-3.59,30.31,7.07,18.82a2.16,2.16,0,0,0,4.06,0l7.08-18.82L129,157.22l7.67-11.57a6.66,6.66,0,0,0-.88-7.85Zm0,0"/></svg>