<svg id="Layer_1" data-name="Layer 1" xmlns="http://www.w3.org/2000/svg" viewBox="0 0 52.25 53.62"><defs><style>.cls-1{fill:#fff;}</style></defs><title>star_icon</title><path class="cls-1" d="M19.85,18.81l-3-2.86a4.49,4.49,0,1,0-1.55,1.65l3,2.86a10.08,10.08,0,0,1,1.55-1.64Zm0,0"/><path class="cls-1" d="M32.64,18.45l4-6.76a4.43,4.43,0,1,0-1.95-1.14l-4,6.75a10.19,10.19,0,0,1,1.94,1.16Zm0,0"/><path class="cls-1" d="M46.51,24.11a4.49,4.49,0,0,0-4.2,2.94l-5.59-.55s0,.08,0,.12a10.29,10.29,0,0,1-.22,2.13l5.58.55a4.48,4.48,0,1,0,4.42-5.19Zm0,0"/><path class="cls-1" d="M31.1,41.76,29.85,36.3a10.44,10.44,0,0,1-2.2.51l1.25,5.46a4.47,4.47,0,1,0,2.2-.51Zm0,0"/><path class="cls-1" d="M16.44,28.79l-7,2.33a4.48,4.48,0,1,0,.73,2.45,2.72,2.72,0,0,0,0-.3l7-2.34a10.48,10.48,0,0,1-.73-2.14Zm0,0"/><path class="cls-1" d="M34.17,26.62a7.7,7.7,0,1,1-7.7-7.69,7.69,7.69,0,0,1,7.7,7.69Zm0,0"/></svg>