<svg id="Layer_1" data-name="Layer 1" xmlns="http://www.w3.org/2000/svg" viewBox="0 0 149 148.75"><defs><style>.cls-1{fill:#0d141c;fill-rule:evenodd;opacity:0.95;}.cls-2{fill:#2a2e3a;}.cls-3{fill:red;}.cls-4{font-size:8.46px;fill:#fff;font-family:Montserrat-Bold, Montserrat;font-weight:700;letter-spacing:-0.1em;}.cls-5{letter-spacing:-0.13em;}.cls-6{letter-spacing:-0.11em;}.cls-7{letter-spacing:-0.1em;}</style></defs><title>website_icon3</title><path class="cls-1" d="M63.23,71.14A43.78,43.78,0,0,1,74.5,41.71a44.06,44.06,0,0,1,0,58.86A43.78,43.78,0,0,1,63.23,71.14Z"/><path class="cls-2" d="M63.23,74.38a42.73,42.73,0,0,0,11.27,29,42.89,42.89,0,1,1,0-58A42.73,42.73,0,0,0,63.23,74.38Z"/><path class="cls-3" d="M85.77,74.38a42.73,42.73,0,0,1-11.27,29,42.89,42.89,0,0,1,0-58A42.73,42.73,0,0,1,85.77,74.38Z"/><path class="cls-2" d="M149,74.38a42.89,42.89,0,0,1-74.5,29,42.89,42.89,0,0,0,0-58,42.88,42.88,0,0,1,74.5,29Z"/><text class="cls-4" transform="translate(15.46 76.46)">mar<tspan class="cls-5" x="15.03" y="0">k</tspan><tspan x="19.33" y="0">eting</tspan></text><text class="cls-4" transform="translate(96.34 76.46)">b<tspan class="cls-6" x="4.98" y="0">r</tspan><tspan class="cls-7" x="7.67" y="0">anding</tspan></text></svg>