<svg id="Layer_1" data-name="Layer 1" xmlns="http://www.w3.org/2000/svg" viewBox="0 0 149 148.75"><defs><style>.cls-1{fill:none;stroke:red;stroke-miterlimit:10;stroke-width:4px;}.cls-2{fill:#fff;}</style></defs><title>website_icon4</title><circle class="cls-1" cx="74.24" cy="74.35" r="70.97"/><path class="cls-2" d="M78.59,98.49a4.23,4.23,0,1,0,4.23,4.23,4.23,4.23,0,0,0-4.23-4.23Zm0,6a1.81,1.81,0,1,1,1.81-1.81,1.81,1.81,0,0,1-1.81,1.81Zm0,0"/><path class="cls-2" d="M84,82.8A4.83,4.83,0,1,0,79.19,78,4.84,4.84,0,0,0,84,82.8Zm0-7.24A2.41,2.41,0,1,1,81.61,78,2.41,2.41,0,0,1,84,75.56Zm0,0"/><path class="cls-2" d="M55.05,52.63a1.23,1.23,0,0,0,.86-.35l2.42-2.42a1.21,1.21,0,1,0-1.71-1.71L54.2,50.56a1.21,1.21,0,0,0,.85,2.06Zm0,0"/><path class="cls-2" d="M98.5,74a4,4,0,0,0-1.16-2.81l-.68-.67a5.42,5.42,0,0,0-3.59-9.49,5.76,5.76,0,0,0-.65,0,5.76,5.76,0,0,0,0-.65A5.44,5.44,0,0,0,87,55a5.76,5.76,0,0,0-.65,0,5.76,5.76,0,0,0,0-.65A5.44,5.44,0,0,0,81,49a5.76,5.76,0,0,0-.65,0,5.76,5.76,0,0,0,0-.65,5.42,5.42,0,0,0-9.49-3.6l-1-1L65.41,39.3a4,4,0,0,0-5.62,0L44.93,54.16a4,4,0,0,0,0,5.62L55.39,70.25a5.4,5.4,0,0,0-.32,9.22,1.79,1.79,0,0,0,.27.29l13,12.93v2.17H65.92v15.69H97.3V94.87H94.89V91.21a10.22,10.22,0,0,0,1.77-13.67l.69-.69A4,4,0,0,0,98.5,74ZM96.09,66.5A3,3,0,0,1,95,68.85l-4.24-4.24a3,3,0,0,1,5.37,1.89Zm-6-6a3,3,0,0,1-1.13,2.35l-4.24-4.24a3,3,0,0,1,5.37,1.89Zm-6-6a3,3,0,0,1-1.13,2.35l-4.24-4.24A3,3,0,0,1,84,54.43ZM75,45.38a3,3,0,0,1,1.89,5.36l-4.24-4.24A3,3,0,0,1,75,45.38ZM46.63,58.08a1.56,1.56,0,0,1,0-2.21L61.49,41a1.71,1.71,0,0,1,.51-.34,2.39,2.39,0,0,1,.27-.05,1.7,1.7,0,0,1,.64,0,2.46,2.46,0,0,1,.27.05,1.71,1.71,0,0,1,.51.34l2.83,2.83L49.47,60.92ZM68.25,45.55,95.63,72.94a1.57,1.57,0,0,1,0,2.21l-.53.52L80.77,90a1.56,1.56,0,0,1-2.21,0l-9.62-9.62h1.2a5.43,5.43,0,1,0,0-10.86H58.07l-6.9-6.9ZM57.42,72l.5-.06.15,0H70.14a3,3,0,0,1,0,6H58.07a3,3,0,0,1-.65-6Zm10.91,36.13V97.28H78.5A6.73,6.73,0,0,1,85.23,104v4.13Zm26.56,0H87.64V104a9.1,9.1,0,0,0-3-6.73H94.89Zm0-28.86a7.81,7.81,0,0,1-2,10.38l-.48.37v4.84H70.75V91.59l-.43-.36-.22-.17L59.38,80.38h6.14L76.86,91.72a4,4,0,0,0,5.62,0Zm0,0"/></svg>