<svg id="Layer_1" data-name="Layer 1" xmlns="http://www.w3.org/2000/svg" xmlns:xlink="http://www.w3.org/1999/xlink" viewBox="0 0 153.35 154.5"><defs><style>.cls-1{fill:none;}.cls-2{fill:red;}.cls-3{fill:#2a2e3a;}.cls-4{clip-path:url(#clip-path);}.cls-5{fill:#fff;}</style><clipPath id="clip-path"><rect class="cls-1" x="44.99" y="45.26" width="79.6" height="64.67"/></clipPath></defs><title>website_icon22</title><circle class="cls-2" cx="25.11" cy="50.5" r="11.3"/><circle class="cls-2" cx="40.67" cy="125.11" r="11.3"/><circle class="cls-3" cx="90.86" cy="17.77" r="11.3"/><circle class="cls-3" cx="44.51" cy="26.13" r="6.38" transform="translate(-1.06 1.9) rotate(-2.42)"/><circle class="cls-2" cx="139.55" cy="92.75" r="6.38" transform="translate(-3.79 5.97) rotate(-2.42)"/><circle class="cls-3" cx="132.66" cy="115.17" r="6.38" transform="translate(-4.74 5.69) rotate(-2.42)"/><circle class="cls-3" cx="138.14" cy="59.43" r="6.38" transform="translate(-2.38 5.88) rotate(-2.42)"/><circle class="cls-3" cx="13.8" cy="80.7" r="6.38" transform="translate(-3.39 0.65) rotate(-2.42)"/><circle class="cls-2" cx="123.37" cy="29.82" r="6.38" transform="translate(-1.15 5.23) rotate(-2.42)"/><circle class="cls-2" cx="66.61" cy="17.77" r="2.99" transform="translate(-0.69 2.82) rotate(-2.42)"/><circle class="cls-2" cx="20.49" cy="103.71" r="2.99" transform="translate(-4.35 0.96) rotate(-2.42)"/><circle class="cls-2" cx="63.12" cy="136.42" r="2.99" transform="translate(-5.69 2.78) rotate(-2.42)"/><circle class="cls-3" cx="87.34" cy="138.07" r="4.58" transform="matrix(1, -0.04, 0.04, 1, -5.74, 3.8)"/><circle class="cls-2" cx="110.09" cy="130.63" r="6.54" transform="translate(-5.41 4.76) rotate(-2.42)"/><g class="cls-4"><path class="cls-5" d="M122.92,47.31a1.1,1.1,0,0,0-1.93-.24c-1.4,2-3.23,2.61-5.35,3.36A20,20,0,0,0,110.25,53c-2.7,1.94-3.94,4.59-3.32,7.1l-.07.08a36.25,36.25,0,0,0-3.65-4.51A34.15,34.15,0,0,0,79.95,45.28l-1.16,0A34.14,34.14,0,0,0,45.36,84.14c.12.8.28,1.61.46,2.41,2.39,10.53,8.5,18.54,16.77,22a15.87,15.87,0,0,0,6.11,1.28,13.59,13.59,0,0,0,12-7.35A15.88,15.88,0,0,0,82.6,97a13.23,13.23,0,0,0-.05-3.23,12.16,12.16,0,0,1,0-3.15,4.22,4.22,0,0,1,4.43-3.78,6.81,6.81,0,0,1,2.07.33c-.81,1.49-1.55,2.92-2.2,4.24A42.94,42.94,0,0,0,84,98.3c-.3,1.09-1.11,4,.86,5.37a3,3,0,0,0,2.25.44c.75-.14,3-.56,9.46-7.9,1.73-2,3.59-4.25,5.54-6.78A15,15,0,0,0,112,78.74a15.74,15.74,0,0,0,.32-3.83c1.87-2.9,3.52-5.6,5.17-8.5l.09-.18a9.11,9.11,0,0,0,5.68-5.14c1.77-3.81,1.64-8.71-.37-13.79Zm-27,18a4.71,4.71,0,1,1,.61-3.55,4.69,4.69,0,0,1-.61,3.55ZM102,73.89c2.38-3.51,4.9-7,7.29-10.1a13,13,0,0,0,1.29,1A10,10,0,0,0,113,66.05c-2,3.45-4.19,6.87-6.82,10.75A176.8,176.8,0,0,1,93.53,93.45a48.82,48.82,0,0,1-5.46,5.49,49.27,49.27,0,0,1,3.11-7.13A177.44,177.44,0,0,1,102,73.89Zm-41.81,0a4.71,4.71,0,1,1,4-2.2,4.7,4.7,0,0,1-4,2.2ZM55.24,84.23a4.71,4.71,0,1,1-.61,3.55,4.69,4.69,0,0,1,.61-3.55Zm15.09-28a4.71,4.71,0,1,1-.61,3.55,4.69,4.69,0,0,1,.61-3.55Zm0,0"/></g></svg>