<?xml version="1.0" encoding="utf-8"?>
<!-- Generator: Adobe Illustrator 21.0.2, SVG Export Plug-In . SVG Version: 6.00 Build 0)  -->
<svg version="1.1" id="Layer_1" xmlns="http://www.w3.org/2000/svg" xmlns:xlink="http://www.w3.org/1999/xlink" x="0px" y="0px"
	 viewBox="0 0 136 122" style="enable-background:new 0 0 136 122;" xml:space="preserve">
<style type="text/css">
	.st0{fill:#FF0000;}
</style>
<g>
	<path class="st0" d="M127,4.6H9c-3.5,0-6.3,2.8-6.3,6.3v74c0,3.5,2.8,6.3,6.3,6.3h44.1v14.3H36c-3.2,0-5.9,2.6-5.9,5.9
		c0,3.2,2.6,5.9,5.9,5.9H100c3.2,0,5.9-2.6,5.9-5.9c0-3.2-2.6-5.9-5.9-5.9H82.9V91.3H127c3.5,0,6.3-2.8,6.3-6.3V11
		C133.3,7.5,130.5,4.6,127,4.6L127,4.6z M123.8,81.8H12.2V14.1h111.7V81.8z M123.8,81.8"/>
	<path class="st0" d="M32.6,51.6l20,9.3c0.5,0.2,1.1,0.4,1.6,0.4c0.7,0,1.5-0.2,2.1-0.6c1.1-0.7,1.8-1.9,1.8-3.3v-0.1
		c0-1.5-0.9-2.9-2.2-3.5l-12.5-5.8l12.5-5.8c1.4-0.6,2.2-2,2.2-3.5v-0.1c0-1.3-0.7-2.6-1.8-3.3c-0.6-0.4-1.3-0.6-2.1-0.6
		c-0.6,0-1.1,0.1-1.6,0.4l-20,9.3c-1.4,0.6-2.2,2-2.2,3.5V48C30.3,49.5,31.2,50.9,32.6,51.6L32.6,51.6z M32.6,51.6"/>
	<path class="st0" d="M58.2,70.5c0.7,1,1.9,1.6,3.1,1.6h0.1c1.7,0,3.2-1.1,3.7-2.7l13.1-40.7c0.4-1.2,0.2-2.5-0.6-3.5
		c-0.7-1-1.9-1.6-3.1-1.6h-0.1c-1.7,0-3.2,1.1-3.7,2.7L57.7,67C57.3,68.2,57.5,69.5,58.2,70.5L58.2,70.5z M58.2,70.5"/>
	<path class="st0" d="M77.9,38.6c0,1.5,0.9,2.9,2.2,3.5l12.5,5.8l-12.5,5.8c-1.4,0.6-2.2,2-2.2,3.5v0.1c0,1.3,0.7,2.6,1.8,3.3
		c0.6,0.4,1.3,0.6,2.1,0.6c0.6,0,1.1-0.1,1.6-0.4l20-9.3c1.4-0.6,2.2-2,2.2-3.5v-0.3c0-1.5-0.9-2.9-2.2-3.5l-20-9.3
		c-0.5-0.2-1.1-0.4-1.6-0.4c-0.7,0-1.5,0.2-2.1,0.6c-1.1,0.7-1.8,1.9-1.8,3.3V38.6z M77.9,38.6"/>
</g>
</svg>
