<?xml version="1.0" encoding="utf-8"?>
<!-- Generator: Adobe Illustrator 21.0.2, SVG Export Plug-In . SVG Version: 6.00 Build 0)  -->
<svg version="1.1" id="Layer_1" xmlns="http://www.w3.org/2000/svg" xmlns:xlink="http://www.w3.org/1999/xlink" x="0px" y="0px"
	 viewBox="0 0 136 122" style="enable-background:new 0 0 136 122;" xml:space="preserve">
<style type="text/css">
	.st0{fill:#FF0000;}
</style>
<g>
	<path class="st0" d="M53.7,42.7l-6.9-6.5c0.8-1.5,1.3-3.1,1.3-4.9C48,25.6,43.5,21,37.8,21s-10.3,4.6-10.3,10.3
		c0,5.7,4.6,10.2,10.3,10.2c2,0,3.8-0.6,5.4-1.6l6.9,6.5C51.2,45.1,52.3,43.8,53.7,42.7L53.7,42.7z M53.7,42.7"/>
	<path class="st0" d="M82.9,41.9l9.2-15.5c0.9,0.3,1.8,0.4,2.8,0.4c5.7,0,10.3-4.6,10.3-10.3c0-5.7-4.6-10.2-10.3-10.2
		S84.7,11,84.7,16.6c0,2.8,1.1,5.4,3,7.2l-9.2,15.4C80,40,81.5,40.9,82.9,41.9L82.9,41.9z M82.9,41.9"/>
	<path class="st0" d="M114.6,54.8c-4.4,0-8.1,2.8-9.6,6.7l-12.8-1.3c0,0.1,0,0.2,0,0.3c0,1.7-0.2,3.3-0.5,4.9l12.8,1.3
		c0.8,4.9,5,8.7,10.1,8.7c5.7,0,10.3-4.6,10.3-10.2C124.8,59.4,120.2,54.8,114.6,54.8L114.6,54.8z M114.6,54.8"/>
	<path class="st0" d="M79.4,95.1l-2.9-12.5c-1.6,0.6-3.3,1-5,1.2l2.9,12.5c-3.3,1.7-5.5,5.1-5.5,9.1c0,5.7,4.6,10.2,10.3,10.2
		c5.7,0,10.2-4.6,10.2-10.2C89.3,99.8,84.9,95.3,79.4,95.1L79.4,95.1z M79.4,95.1"/>
	<path class="st0" d="M45.9,65.5L30,70.8c-1.8-2.8-5-4.7-8.6-4.7c-5.7,0-10.2,4.6-10.2,10.2s4.6,10.3,10.2,10.3s10.3-4.6,10.3-10.3
		c0-0.2,0-0.5-0.1-0.7l15.9-5.3C46.8,68.9,46.3,67.2,45.9,65.5L45.9,65.5z M45.9,65.5"/>
	<path class="st0" d="M86.4,60.6c0,9.7-7.9,17.6-17.6,17.6c-9.7,0-17.6-7.9-17.6-17.6c0-9.7,7.9-17.6,17.6-17.6
		C78.5,43,86.4,50.9,86.4,60.6L86.4,60.6z M86.4,60.6"/>
</g>
</svg>
