<svg id="Layer_1" data-name="Layer 1" xmlns="http://www.w3.org/2000/svg" viewBox="0 0 363 89"><defs><style>.cls-1{fill:#fff;}</style></defs><title>emirates_logo_text</title><path class="cls-1" d="M106.22,9.14c1.47,0,3.47-2,4.56-2.77.47-.36,3.58-3.62,3.92-3.62-31.79.05-65,5.52-94.58,17a22.52,22.52,0,0,0-5.44,3.63c-.38.31-2.92,2.89-2.57,2.75C41.55,14.73,74.6,9.19,106.22,9.14Z"/><polygon class="cls-1" points="188.51 18.38 185.21 7.87 176.15 15.7 179.46 22.68 188.51 18.38"/><path class="cls-1" d="M354.63,37.5c-5.55-2.82-11.78-3.23-17.65-4.67-2.46-.6-6-1.78-7.54-4-.5-.73-4.53,2.77-8.06,5.74-6.61,5.59-14.44,12.52-22.56,6.09a10.84,10.84,0,0,1-1.08-1c1.2-1.11,2.29-1.06,3.16-2.26,3.21-4.42-3.81-8-8.43-5.23-3.18,1.93-6.76,4.27-6,8.89a6.93,6.93,0,0,0,.63,1.92,15.21,15.21,0,0,1-9.75-1.5C272.72,39.33,274,33,274,33c10.58-1.4,11.06-6.85,11.06-6.85s-10.9,4.85-12.34-6c0,0-9.36,6.34-9,10.47,1.93,6.92-5.41,14.83-10.27,11.74-2.46-1.57-2.11-4.92-2.64-7.26-.73-3.24-2.67-4.65-5.84-4-4.47.94-31.15,8.8-26.63-4.76.14-.42-7.27,2-8.19,5.58a2.57,2.57,0,0,1-.39.65c-4.39.26-12.25,8.51-15.78,9.13-4.14,1.35-7.39-3.36-5.75-8.87,0,.11-5.18,3.21-6.59,4a29,29,0,0,1-5,1.91,28.82,28.82,0,0,1-10.51,1.18c-2.06-.16-3.48-1-3.7-3.14-.7-6.5-10.14-3.58-14.46-2.81-8.55,1.53-19,5.17-26-1.88-4.39-4.45-10-1.1-15,.53-18.54,6-38.68,8.54-58,10.85a217.68,217.68,0,0,1-28.08,2c-3,0-11.26.6-9.52-4.39a4.88,4.88,0,0,1,.48-1,45.52,45.52,0,0,1,6.27-2.24,101.81,101.81,0,0,1,13.27-2.82,150,150,0,0,1,16.72-1.69c1.66-.06,4.23-2.67,5.44-3.63.28-.22,3.2-2.77,2.56-2.75-13.74.58-29.53,2.11-41.45,9.46-2.29,1.4-15,9.32-11.91,13.65,2.17,3,11.24,1.8,14.31,1.73C37.6,51.32,58.26,47.95,78.31,44c7.84-1.53,15.83-3.15,23.34-5.91,2.91-1.06,6.31-2.67,9.43-1.52,1.89.7,3.17,2.76,4.74,3.94,6.4,4.8,17.41,1.17,24.2-.17,3.7-.72,13.51-3.62,14,2.49s11.35,3.15,14.71,2.28a36.71,36.71,0,0,0,11-5.12,5.9,5.9,0,0,0,1.86,5.34c4.26,3.93,11.63.83,15.14-2,2.42-1.92,6.55-5.83,11.18-5.84,6.42,0,1.36,7.85-.57,10.37,0,0,10.45-2,11.68-8,6.24,1,16.48-2.92,19.85-4-.84.66-4,3-4.69,3.8-1.43,1.57-6.92,7.84-2.19,8.78,2.42.49,9.62-1.22,11.22-2,6.47,3.92,18.27-.5,21.95-3.42,6.14,7.54,21.15,4,23.83,2.63,18.87,5.69,25-1,33.29-9.08C326,39.84,333,40,337.29,40.82a27.08,27.08,0,0,1,11.09,4.5c7.18,5.24-.64,12.88-.64,12.88S369.91,45.26,354.63,37.5ZM11.75,40.19c-1.44,1.56-2.24,1.08,0,0Zm227.42,3.4c-2.94-.31-1.43-3.53.29-6.09a4.17,4.17,0,0,1,.65.22c2.13,1,2.33,3.28,2.53,5.6A11.37,11.37,0,0,1,239.17,43.58Zm56.9-6.87c0-4.75,2.29-4,2.29-1.23S296.07,36.71,296.07,36.71Z"/><path class="cls-1" d="M65.73,74.39V81l-.55.52a7.06,7.06,0,0,1-2.41,1.53,8.08,8.08,0,0,1-2.94.54,7.48,7.48,0,0,1-3.17-.68,8.48,8.48,0,0,1-4.36-4.58,9.06,9.06,0,0,1,0-6.69,8.48,8.48,0,0,1,4.36-4.58A7.63,7.63,0,0,1,62.81,67a9,9,0,0,1,2.54,1.66v1.28a7.39,7.39,0,0,0-2.76-1.85,8.46,8.46,0,0,0-2.76-.48,5.94,5.94,0,0,0-2.59.58,6.68,6.68,0,0,0-2.12,1.58,7.57,7.57,0,0,0-1.42,2.35,8.17,8.17,0,0,0,0,5.76,7.57,7.57,0,0,0,1.42,2.35,6.51,6.51,0,0,0,2.12,1.57,6.06,6.06,0,0,0,2.59.57,6,6,0,0,0,2.41-.48,7,7,0,0,0,2-1.32v-5H59.86V74.39Z"/><path class="cls-1" d="M108.43,72.06a5,5,0,0,1-.77,2.76,5.66,5.66,0,0,1-2.25,1.95l3.2,6.83H107l-2.88-6.25a7.74,7.74,0,0,1-1.26.3,9.16,9.16,0,0,1-1.41.1q-.58,0-1.06,0a6.22,6.22,0,0,1-1-.19V83.6H97.85V67.24a6.15,6.15,0,0,1,1.77-.68,8.88,8.88,0,0,1,1.83-.19,8.08,8.08,0,0,1,2.7.45A7.37,7.37,0,0,1,106.38,68a5.86,5.86,0,0,1,1.5,1.82A4.67,4.67,0,0,1,108.43,72.06Zm-1.45,0a3.7,3.7,0,0,0-.44-1.77,4.64,4.64,0,0,0-1.19-1.42,5.82,5.82,0,0,0-1.76-1,6.76,6.76,0,0,0-3.23-.26,8.85,8.85,0,0,0-1,.23v8.37a5.93,5.93,0,0,0,1,.25,7.38,7.38,0,0,0,1.08.07,6.76,6.76,0,0,0,2-.3,5.85,5.85,0,0,0,1.77-.89A4.62,4.62,0,0,0,106.5,74,3.73,3.73,0,0,0,107,72.06Z"/><path class="cls-1" d="M153,83.6h-1.54L149,76.95h-5.78l-2.44,6.66h-1.6l6.39-17.27h1.1Zm-4.48-7.91L146.1,69l-2.35,6.66Z"/><path class="cls-1" d="M187.9,66.37a8.08,8.08,0,0,1,2.7.45A7.38,7.38,0,0,1,192.83,68a5.86,5.86,0,0,1,1.5,1.82,4.72,4.72,0,0,1,0,4.43,5.92,5.92,0,0,1-1.5,1.8,7.35,7.35,0,0,1-2.22,1.22,8.07,8.07,0,0,1-2.7.45q-.58,0-1.06,0a6.23,6.23,0,0,1-1-.19V83.6h-1.51V67.27a4.35,4.35,0,0,1,1.76-.73A10.51,10.51,0,0,1,187.9,66.37Zm0,10.2a6.34,6.34,0,0,0,2.15-.36,5.8,5.8,0,0,0,1.76-1A4.72,4.72,0,0,0,193,73.81a3.64,3.64,0,0,0,.44-1.74,3.7,3.7,0,0,0-.44-1.77,4.72,4.72,0,0,0-1.18-1.42,5.59,5.59,0,0,0-1.76-1,6.6,6.6,0,0,0-2.15-.35,6.46,6.46,0,0,0-1.09.09,8.86,8.86,0,0,0-1,.23v8.37a5.94,5.94,0,0,0,1,.25A7.37,7.37,0,0,0,187.9,76.57Z"/><path class="cls-1" d="M238.54,66.31V83.6h-1.48V74.21h-8.28V83.6h-1.48V66.31h1.48V73h8.28V66.31Z"/><path class="cls-1" d="M272.43,83.6h-1.48V66.31h1.48Z"/><path class="cls-1" d="M305.59,74.94a7.94,7.94,0,0,0,.52,2.89,7.42,7.42,0,0,0,1.44,2.35,6.92,6.92,0,0,0,2.12,1.58,5.91,5.91,0,0,0,2.6.58,7.55,7.55,0,0,0,2.75-.52,8.18,8.18,0,0,0,2.75-1.92v1.45a8.41,8.41,0,0,1-2.51,1.6,7.73,7.73,0,0,1-3,.58,7.62,7.62,0,0,1-3.17-.67,8.32,8.32,0,0,1-2.6-1.83,8.77,8.77,0,0,1-2.43-6.1,8.6,8.6,0,0,1,.65-3.34,8.92,8.92,0,0,1,1.77-2.75,8.41,8.41,0,0,1,2.6-1.86,7.47,7.47,0,0,1,3.17-.68,7.18,7.18,0,0,1,3,.62,9.34,9.34,0,0,1,2.53,1.67V70A8.18,8.18,0,0,0,315,68.05a7.55,7.55,0,0,0-2.75-.52,5.91,5.91,0,0,0-2.6.58,6.82,6.82,0,0,0-2.12,1.6,7.6,7.6,0,0,0-1.44,2.37A7.86,7.86,0,0,0,305.59,74.94Z"/></svg>