<svg id="Layer_1" data-name="Layer 1" xmlns="http://www.w3.org/2000/svg" viewBox="0 0 605.42 646.11"><defs><style>.cls-1{fill:red;}</style></defs><title>emirate_logo_red</title><path class="cls-1" d="M189,507.35c-16.54,2.66-64.72,16-78.71,1.24-19.94-21.13,43-73.4,54.33-82.7,59.07-48.62,143.4-68.65,217.34-82,3.43-.6-10.44,15.35-11.81,16.78-5.79,6.13-17.77,22.15-26.72,23.7a818.57,818.57,0,0,0-89.26,21.55c-23.6,7.14-47.25,14.87-69.71,25.11-11,5-22.14,10.19-32.29,16.79a27,27,0,0,0-1.9,5.59c-5.74,28.3,38.28,18.81,54.77,16.68,50.82-6.46,101-18.67,150.5-31.65,73.3-19.16,148.87-39.25,221-66L504.66,235.17C378.41,264.52,254.07,310.4,142.79,372.3c-1.82,1,10-14.87,11.85-16.8,7.9-8.3,16.58-18.06,26.73-23.7C277.19,278.5,382.51,237.24,490.45,208L385.47,7.56,6.93,383.78l193,262.33L598.14,413.68l-10.87-20.76c-24,9.79-48.58,18.34-72.92,26.67C408.76,455.8,299.43,489.4,189,507.35Z"/></svg>